<?xml version="1.0" standalone="no"?>
<!DOCTYPE svg PUBLIC "-//W3C//DTD SVG 20010904//EN"
 "http://www.w3.org/TR/2001/REC-SVG-20010904/DTD/svg10.dtd">
<svg version="1.0" xmlns="http://www.w3.org/2000/svg"
 width="1200.000000pt" height="1200.000000pt" viewBox="0 0 1200.000000 1200.000000"
 preserveAspectRatio="xMidYMid meet">

<g transform="translate(0.000000,1200.000000) scale(0.100000,-0.100000)"
fill="#000000" stroke="none">
<path d="M5376 10927 c-18 -20 -37 -48 -40 -63 -4 -15 -16 -46 -27 -68 -10
-22 -19 -44 -19 -49 0 -5 -7 -25 -16 -45 -9 -21 -23 -51 -30 -69 -8 -17 -14
-38 -14 -46 0 -9 -4 -18 -9 -21 -5 -3 -12 -17 -15 -31 -4 -14 -17 -49 -30 -78
-13 -28 -40 -97 -61 -152 -21 -55 -48 -124 -61 -153 -13 -29 -24 -55 -24 -58
0 -3 -7 -22 -16 -42 -9 -21 -23 -51 -30 -69 -8 -17 -14 -38 -14 -46 0 -9 -4
-18 -9 -21 -5 -3 -12 -17 -15 -31 -4 -14 -18 -50 -31 -80 -14 -29 -25 -60 -25
-67 0 -8 -4 -18 -9 -23 -5 -6 -28 -62 -51 -125 -24 -63 -46 -119 -50 -125 -4
-5 -11 -21 -15 -35 -4 -14 -18 -48 -31 -77 -13 -28 -24 -58 -24 -67 0 -8 -4
-18 -10 -21 -5 -3 -10 -13 -10 -21 0 -9 -11 -40 -25 -70 -14 -30 -25 -57 -25
-60 0 -3 -7 -20 -15 -37 -8 -18 -39 -97 -70 -177 -31 -80 -62 -158 -69 -175
-7 -16 -19 -46 -26 -65 -7 -19 -17 -39 -22 -44 -4 -6 -8 -16 -8 -24 0 -8 -7
-29 -15 -48 -29 -65 -43 -99 -60 -149 -10 -27 -21 -54 -25 -60 -4 -5 -24 -55
-45 -110 -20 -55 -43 -113 -51 -130 -7 -16 -27 -66 -44 -110 -17 -44 -35 -89
-39 -100 -5 -11 -16 -36 -25 -57 -9 -20 -16 -43 -16 -51 0 -9 -4 -18 -9 -21
-5 -3 -12 -17 -15 -31 -4 -14 -17 -49 -30 -78 -13 -28 -40 -97 -61 -152 -21
-55 -48 -124 -61 -153 -13 -29 -24 -71 -24 -94 0 -35 6 -47 40 -80 l41 -38
1114 0 c690 0 1115 -4 1115 -9 0 -6 -4 -13 -10 -16 -5 -3 -10 -14 -10 -23 0
-9 -10 -37 -23 -62 -12 -25 -34 -74 -47 -110 -13 -36 -35 -85 -47 -110 -13
-25 -23 -50 -23 -57 0 -7 -8 -27 -18 -45 -10 -18 -26 -55 -36 -83 -10 -27 -29
-72 -41 -100 -13 -27 -38 -86 -56 -130 -17 -44 -36 -84 -40 -90 -5 -5 -9 -15
-9 -23 0 -7 -11 -37 -25 -67 -13 -29 -45 -105 -70 -167 -26 -62 -55 -133 -66
-157 -11 -24 -29 -67 -40 -95 -11 -28 -32 -78 -46 -111 -14 -33 -31 -73 -38
-90 -7 -16 -36 -86 -65 -155 -28 -69 -60 -144 -71 -167 -10 -24 -19 -45 -19
-48 0 -2 -11 -28 -24 -57 -13 -29 -45 -105 -71 -168 -26 -63 -58 -138 -71
-167 -13 -28 -24 -58 -24 -65 0 -8 -4 -18 -9 -23 -4 -6 -23 -46 -40 -90 -18
-44 -43 -103 -57 -131 -13 -28 -24 -56 -24 -63 0 -6 -4 -19 -10 -29 -15 -27
-60 -132 -60 -140 0 -4 -10 -27 -23 -52 -12 -25 -34 -74 -47 -110 -13 -36 -32
-80 -42 -98 -10 -18 -18 -38 -18 -45 0 -7 -10 -32 -23 -57 -12 -25 -34 -74
-47 -110 -13 -36 -32 -80 -42 -98 -10 -18 -18 -38 -18 -45 0 -7 -10 -32 -23
-57 -12 -25 -34 -74 -47 -110 -13 -36 -35 -85 -47 -110 -13 -25 -23 -51 -23
-58 0 -7 -4 -20 -10 -30 -15 -27 -60 -132 -60 -140 0 -4 -11 -28 -24 -54 -39
-78 -59 -143 -52 -171 10 -42 62 -94 98 -99 73 -11 93 4 208 152 19 25 39 50
45 56 13 15 45 55 135 169 39 50 76 97 83 105 6 8 28 35 47 60 58 74 64 82 80
99 8 9 26 32 40 51 14 19 32 44 42 55 24 29 75 93 133 167 27 34 52 65 55 68
3 3 17 21 30 40 14 19 32 42 40 51 16 17 22 25 80 99 19 25 41 52 47 60 7 8
44 56 83 105 39 50 81 102 93 116 12 14 31 38 42 53 11 15 28 37 38 49 10 12
31 37 45 56 54 68 164 207 190 239 45 55 56 70 79 99 12 15 30 38 40 50 10 12
28 34 40 50 97 123 128 162 151 192 55 68 94 117 110 136 10 11 28 36 42 55
14 19 32 44 42 55 15 18 31 38 110 136 33 42 122 154 151 193 12 15 27 33 32
40 6 6 26 31 45 56 49 64 53 68 108 135 27 33 54 70 61 82 16 32 14 80 -6 111
-32 48 -55 61 -109 62 -47 0 -54 -3 -90 -42 -22 -24 -55 -63 -74 -88 -19 -25
-39 -50 -45 -56 -13 -15 -92 -115 -188 -238 -12 -15 -27 -33 -32 -40 -6 -6
-26 -31 -45 -56 -19 -25 -39 -50 -45 -56 -5 -7 -20 -25 -32 -40 -81 -105 -171
-218 -188 -238 -6 -6 -26 -31 -45 -56 -19 -25 -39 -50 -45 -56 -5 -7 -20 -25
-32 -40 -29 -39 -118 -151 -151 -193 -79 -98 -95 -118 -110 -136 -10 -11 -28
-36 -42 -55 -23 -33 -52 -68 -75 -94 -6 -6 -24 -29 -40 -51 -16 -22 -50 -65
-75 -95 -26 -30 -68 -84 -95 -120 -27 -36 -54 -70 -60 -76 -5 -7 -20 -25 -32
-40 -12 -16 -47 -60 -78 -99 -31 -38 -66 -83 -78 -99 -12 -15 -27 -33 -32 -40
-6 -6 -26 -31 -45 -56 -19 -25 -39 -50 -45 -56 -11 -13 -37 -46 -91 -117 -20
-26 -39 -46 -41 -44 -4 5 47 128 59 141 4 6 8 17 8 25 0 9 10 36 23 61 12 25
34 74 47 110 13 36 32 80 42 98 10 18 18 38 18 45 0 7 10 32 23 57 12 25 34
74 47 110 13 36 35 85 47 110 13 25 23 50 23 57 0 7 8 27 18 45 10 18 29 62
42 98 13 36 35 85 47 110 13 25 23 48 23 52 0 8 45 113 60 140 6 10 10 23 10
30 0 7 14 40 30 73 16 33 30 63 30 67 0 8 46 114 60 140 6 10 10 23 10 29 0 7
11 35 25 63 13 28 33 74 43 101 11 28 32 76 46 107 14 31 26 63 26 70 0 8 4
18 8 23 5 6 35 73 66 150 32 77 69 164 82 193 13 29 24 55 24 57 0 2 11 28 24
57 13 29 42 100 66 158 23 58 50 123 60 145 10 22 39 92 65 155 26 63 58 138
71 167 13 28 24 54 24 57 0 5 99 243 131 313 41 91 8 174 -76 193 -23 6 -505
10 -1127 10 -941 0 -1088 2 -1088 14 0 8 4 17 9 21 5 3 13 20 17 37 3 18 10
39 14 48 14 26 40 88 40 94 0 3 11 29 24 58 13 29 40 98 61 153 21 55 48 124
61 153 13 29 24 56 24 60 1 4 9 25 20 47 11 22 19 46 20 53 0 7 4 20 9 30 20
38 41 91 41 104 0 8 4 18 8 24 5 5 15 25 22 44 7 19 19 49 26 65 7 17 34 84
59 150 25 66 55 139 65 162 11 24 20 45 20 49 0 3 11 29 24 57 13 29 26 63 30
77 4 14 11 34 16 45 5 11 23 56 40 100 17 44 37 94 45 110 8 17 28 68 44 113
17 45 40 102 51 126 11 25 20 47 20 50 0 3 11 30 25 60 14 30 25 59 25 64 0 5
7 23 15 38 8 16 15 36 15 44 0 9 4 20 8 25 5 6 15 26 22 45 7 19 21 53 31 75
9 22 38 96 64 165 26 69 58 149 71 178 13 29 24 56 24 60 1 4 9 25 20 47 11
22 19 47 20 56 0 8 4 19 9 25 4 5 21 43 36 84 15 41 31 80 35 85 3 6 26 64 51
129 l44 119 280 -7 c154 -3 688 -9 1187 -13 l906 -6 -10 -26 c-5 -14 -23 -55
-40 -91 -27 -59 -56 -122 -92 -205 -8 -16 -26 -55 -40 -86 -14 -31 -26 -59
-26 -62 0 -5 -29 -68 -106 -233 -13 -28 -24 -54 -24 -57 0 -3 -17 -43 -38 -89
-21 -46 -47 -101 -56 -123 -152 -340 -192 -430 -217 -483 -16 -35 -29 -65 -29
-67 0 -2 -16 -39 -36 -82 -20 -43 -49 -106 -65 -141 -16 -35 -29 -65 -29 -67
0 -2 -16 -39 -36 -82 -20 -43 -42 -91 -49 -108 -50 -113 -65 -146 -84 -190
-12 -27 -26 -58 -31 -67 -15 -28 -12 -96 6 -124 40 -60 0 -58 907 -55 797 2
828 2 818 -16 -5 -10 -18 -27 -28 -38 -10 -11 -56 -67 -101 -125 -46 -58 -91
-114 -100 -125 -9 -11 -33 -40 -52 -65 -19 -25 -39 -50 -45 -57 -12 -14 -19
-23 -65 -83 -19 -25 -42 -54 -52 -65 -22 -27 -177 -223 -208 -264 -14 -17 -33
-42 -43 -54 -10 -12 -31 -37 -45 -56 -15 -19 -58 -73 -96 -120 -37 -47 -74
-98 -82 -113 -34 -66 1 -141 77 -168 31 -11 43 -11 70 0 39 16 44 20 124 120
33 41 66 81 72 90 7 8 44 56 83 105 39 50 76 97 83 105 7 8 28 35 47 60 19 25
39 50 45 56 5 7 20 25 32 40 12 16 47 61 78 99 31 39 66 83 78 99 12 15 27 33
32 40 6 6 26 31 45 56 19 25 39 50 45 56 5 7 20 25 32 40 96 123 175 223 188
238 6 6 26 31 45 56 55 71 64 82 80 99 80 86 61 200 -38 229 -29 9 -261 12
-881 12 -462 0 -841 3 -841 7 0 6 14 38 66 149 13 28 24 54 24 57 0 3 17 43
38 89 21 46 47 101 56 123 152 340 192 430 217 483 16 35 29 65 29 67 0 2 16
39 36 82 20 43 49 106 65 141 16 35 29 65 29 67 0 2 15 36 34 77 18 40 43 96
55 123 30 67 43 97 81 180 34 75 44 97 85 190 46 103 57 128 87 191 15 34 28
64 28 67 0 3 18 45 41 94 35 75 40 95 36 136 -5 56 -32 88 -88 105 -23 7 -472
13 -1382 17 l-1348 7 -33 -35z"/>
<path d="M7554 6857 c-12 -7 -45 -41 -73 -77 -28 -36 -57 -72 -64 -80 -58 -71
-75 -99 -77 -120 -6 -63 1 -83 36 -116 29 -28 43 -34 77 -34 63 0 82 15 177
139 36 46 73 94 83 107 43 55 25 149 -34 179 -34 18 -96 19 -125 2z"/>
<path d="M3353 6098 c-11 -6 -40 -47 -64 -92 -53 -102 -63 -120 -69 -126 -3
-3 -22 -39 -43 -80 -20 -41 -50 -97 -65 -125 -35 -62 -129 -238 -174 -325 -18
-36 -35 -67 -38 -70 -3 -3 -24 -41 -47 -85 -22 -44 -53 -102 -68 -130 -32 -57
-96 -177 -134 -250 -14 -27 -28 -52 -31 -55 -3 -3 -22 -39 -43 -80 -20 -41
-51 -99 -67 -128 -33 -58 -38 -93 -16 -111 13 -11 77 -33 361 -123 55 -18 102
-33 104 -35 2 -1 -12 -33 -31 -70 -77 -150 -103 -198 -108 -203 -5 -5 -16 -25
-80 -145 -23 -44 -46 -84 -50 -90 -5 -5 -26 -44 -48 -85 -22 -41 -51 -95 -64
-120 -43 -76 -74 -132 -108 -195 -18 -33 -51 -91 -72 -130 -21 -38 -44 -81
-51 -95 -6 -14 -14 -27 -17 -30 -3 -3 -13 -21 -22 -40 -10 -19 -38 -71 -63
-115 -25 -44 -55 -100 -67 -125 -12 -25 -24 -47 -27 -50 -3 -3 -14 -21 -25
-40 -10 -19 -34 -64 -54 -100 -19 -36 -48 -89 -64 -118 -31 -58 -36 -103 -12
-122 18 -16 76 -18 81 -3 2 6 13 22 24 35 12 12 31 37 44 53 28 35 145 185
184 234 14 19 34 43 44 55 9 12 38 48 63 81 76 99 98 127 122 153 12 14 22 28
22 31 0 3 10 17 23 31 12 14 31 37 42 51 58 77 150 195 154 199 4 3 26 32 51
65 25 33 47 62 50 65 5 4 48 59 82 105 5 6 26 32 48 60 45 55 52 101 22 128
-35 32 -78 13 -122 -53 -16 -24 -58 -78 -135 -174 -27 -34 -59 -75 -70 -90
-11 -16 -25 -33 -30 -40 -6 -6 -29 -36 -53 -66 -23 -30 -50 -64 -60 -76 -9
-12 -30 -38 -47 -59 -59 -75 -65 -79 -34 -20 18 33 40 71 48 85 9 14 27 48 41
75 14 28 28 52 31 55 3 3 15 25 27 50 12 25 43 81 68 125 24 44 52 96 62 115
9 19 19 37 22 40 3 3 21 34 39 70 19 36 43 81 54 100 11 19 33 60 50 90 16 30
41 75 55 100 14 25 43 79 65 120 22 41 43 79 48 84 27 29 -18 106 -61 106 -8
0 -35 6 -60 15 -134 43 -201 64 -250 79 -30 9 -67 22 -82 27 l-26 11 37 66
c20 37 46 85 56 107 11 22 22 42 25 45 3 3 16 25 29 50 21 41 47 89 151 285
20 39 50 93 65 120 15 28 51 95 80 150 28 55 63 120 77 145 14 25 45 83 70
130 25 47 63 117 84 155 21 39 51 96 67 128 31 59 39 64 79 48 13 -5 70 -24
128 -42 58 -18 110 -36 115 -39 6 -4 24 -10 40 -14 69 -16 115 -39 115 -57 0
-11 -4 -19 -10 -19 -5 0 -10 -6 -10 -13 0 -7 -11 -29 -25 -49 -13 -20 -45 -76
-71 -125 -26 -48 -54 -99 -64 -113 -9 -14 -24 -38 -32 -55 -8 -16 -35 -64 -58
-105 -24 -41 -54 -95 -67 -120 -14 -25 -28 -49 -33 -55 -8 -11 -63 -111 -88
-160 -9 -16 -31 -54 -50 -84 -37 -58 -52 -122 -33 -145 11 -13 68 -33 251 -88
112 -34 106 -27 64 -83 -21 -27 -45 -56 -53 -65 -9 -9 -25 -29 -36 -44 -11
-16 -31 -43 -45 -60 -14 -17 -39 -49 -55 -71 -16 -22 -37 -49 -47 -60 -9 -11
-26 -31 -37 -44 -12 -13 -21 -27 -21 -30 0 -3 -12 -19 -27 -35 -47 -51 -28
-118 33 -118 31 0 43 12 139 136 33 43 72 92 87 110 15 17 28 34 28 37 0 3 9
17 21 30 11 13 28 33 37 44 10 11 31 38 47 60 16 22 42 56 58 75 59 74 77 102
77 121 0 18 -32 59 -47 59 -12 0 -199 58 -228 70 -11 5 -39 14 -62 20 -41 10
-41 11 -30 40 6 17 15 30 19 30 4 0 8 4 8 10 0 5 14 33 32 62 17 29 43 76 58
103 14 28 44 82 67 120 85 145 153 268 153 276 0 5 5 9 10 9 6 0 10 5 10 10 0
6 20 47 45 90 25 44 56 99 69 123 13 23 35 64 50 90 46 83 33 112 -64 142 -30
9 -77 25 -105 36 -27 10 -63 21 -80 25 -16 4 -34 10 -40 14 -5 3 -57 21 -115
39 -58 18 -123 40 -145 48 -22 8 -44 17 -50 18 -5 2 -20 -1 -32 -7z"/>
<path d="M7880 4244 c-9 -3 -20 -12 -26 -22 -23 -36 -143 -259 -206 -382 -18
-36 -35 -67 -38 -70 -3 -3 -17 -27 -31 -55 -31 -59 -92 -175 -141 -265 -20
-36 -51 -94 -69 -130 -19 -36 -36 -67 -39 -70 -3 -3 -25 -43 -49 -90 -24 -47
-56 -107 -71 -135 -159 -289 -208 -390 -203 -417 5 -29 16 -34 188 -89 55 -17
133 -42 173 -55 40 -13 78 -24 85 -24 6 0 18 -4 25 -9 14 -8 13 -11 -53 -126
-13 -22 -36 -65 -52 -95 -16 -30 -47 -86 -68 -125 -78 -143 -93 -171 -111
-205 -11 -19 -22 -37 -25 -40 -3 -3 -15 -25 -27 -50 -12 -25 -42 -81 -67 -125
-25 -44 -53 -96 -63 -115 -9 -19 -19 -37 -22 -40 -3 -3 -11 -16 -17 -30 -7
-14 -30 -56 -51 -95 -39 -70 -86 -156 -127 -230 -12 -22 -37 -67 -55 -100 -18
-33 -49 -89 -68 -125 -18 -36 -37 -69 -42 -75 -7 -9 -60 -106 -110 -203 -15
-29 -20 -50 -15 -69 8 -33 21 -43 57 -43 28 0 37 7 78 61 14 18 30 37 35 43 6
6 30 38 55 71 25 33 47 62 50 65 3 3 28 34 55 70 27 36 60 79 74 96 39 47 52
64 106 134 27 36 52 67 55 70 3 3 19 23 35 45 17 22 50 65 75 96 25 30 57 71
71 90 29 37 146 186 184 234 13 17 33 41 44 54 12 13 21 27 21 30 0 3 10 17
23 31 45 50 77 99 77 117 0 26 -36 63 -62 63 -11 0 -37 -17 -57 -39 -34 -36
-51 -57 -103 -126 -12 -16 -25 -32 -28 -35 -3 -3 -18 -23 -35 -45 -16 -22 -35
-46 -43 -54 -7 -8 -21 -26 -30 -40 -19 -29 -40 -56 -62 -80 -8 -9 -35 -43 -60
-76 -108 -142 -125 -158 -80 -70 23 44 46 85 50 90 4 6 28 49 53 96 53 101 70
132 77 139 3 3 18 30 33 60 15 30 40 78 55 105 16 28 42 75 59 105 17 30 46
84 65 120 20 36 47 86 62 113 30 55 57 103 115 209 40 73 41 78 28 105 -13 24
-31 33 -124 62 -232 73 -353 113 -353 117 0 4 36 73 107 204 16 30 51 96 78
145 26 50 59 110 73 135 14 25 49 90 77 145 29 55 65 123 80 150 15 28 45 82
65 120 20 39 50 93 65 120 15 28 48 91 74 140 83 158 144 270 150 277 5 6 435
-132 446 -144 5 -5 -42 -99 -54 -108 -6 -5 -14 -20 -83 -150 -22 -41 -44 -79
-48 -85 -4 -5 -21 -35 -38 -65 -16 -30 -49 -89 -72 -130 -24 -41 -53 -93 -65
-115 -12 -22 -41 -74 -65 -115 -120 -209 -133 -236 -126 -266 5 -17 20 -31 49
-43 44 -19 57 -23 202 -68 50 -15 94 -30 99 -34 6 -6 -62 -101 -119 -165 -5
-6 -17 -22 -25 -34 -8 -12 -30 -41 -48 -64 -51 -63 -54 -67 -107 -136 -28 -36
-53 -67 -56 -70 -21 -17 -29 -51 -18 -72 16 -30 28 -38 62 -38 30 0 27 -2 123
120 36 47 73 94 82 105 10 11 37 47 61 80 25 33 50 65 56 70 6 6 31 37 56 70
54 74 54 73 84 110 33 40 32 78 -1 104 -15 12 -32 21 -39 21 -7 0 -75 20 -151
45 -75 25 -143 45 -151 45 -7 0 -13 5 -13 10 0 6 3 10 8 10 4 0 12 10 18 23
15 33 58 111 64 117 3 3 14 23 25 45 11 22 27 51 36 65 9 14 30 50 47 80 16
30 49 89 72 130 24 41 54 95 67 120 14 25 28 50 33 55 4 6 22 37 40 70 18 33
43 78 55 100 112 205 108 196 95 220 -7 12 -22 28 -34 34 -22 11 -593 202
-598 200 -2 -1 -10 -3 -18 -5z"/>
<path d="M3166 4001 c-25 -33 -46 -67 -46 -76 0 -45 50 -76 89 -55 30 16 101
111 101 135 0 30 -30 55 -68 55 -26 0 -38 -9 -76 -59z"/>
<path d="M7727 2186 c-57 -61 -77 -92 -77 -121 0 -40 10 -54 45 -60 35 -7 38
-5 93 61 49 60 56 103 20 128 -31 22 -55 20 -81 -8z"/>
</g>
</svg>
